<?xml version="1.0" encoding="UTF-8"?>
<svg width="60px" height="66px" viewBox="0 0 60 66" version="1.1" xmlns="http://www.w3.org/2000/svg" xmlns:xlink="http://www.w3.org/1999/xlink">
    <!-- Generator: Sketch 58 (84663) - https://sketch.com -->
    <title>Icon-time_medium</title>
    <desc>Created with Sketch.</desc>
    <g id="Page-1" stroke="none" stroke-width="1" fill="none" fill-rule="evenodd">
        <g id="Icon-time_medium" transform="translate(0.000000, -1.000000)">
            <circle id="face" stroke="#577592" stroke-width="4" cx="30" cy="37" r="28"></circle>
            <path d="M16.6559488,4.97840586 C14.4191967,4.50595353 12.1268187,4.2657706 9.80533395,4.2657706 C8.16020202,4.2657706 6.5291564,4.38638618 4.9214563,4.62507611 C3.2825661,4.86839673 2.15123343,6.39423007 2.39455405,8.03312027 C2.63787467,9.67201047 4.16370802,10.8033431 5.80259821,10.5600225 C7.11882083,10.3646073 8.45535759,10.2657706 9.80533395,10.2657706 C11.7094871,10.2657706 13.5863142,10.4624144 15.4159728,10.8488794 C17.0370593,11.1912893 18.6287877,10.1547171 18.9711976,8.53363063 C19.3136075,6.91254413 18.2770353,5.32081578 16.6559488,4.97840586 Z" id="crown" fill="#577592" fill-rule="nonzero" transform="translate(10.699099, 7.590013) rotate(-36.000000) translate(-10.699099, -7.590013) "></path>
            <path d="M30,14.5 C42.4264069,14.5 52.5,24.5735931 52.5,37 C52.5,45.0538663 48.2684245,52.1193952 41.9072974,56.0945626 C41.9072974,56.0945626 41.9072974,56.0945626 41.9072974,56.0945626 C40.8575042,56.7505947 39.4746595,56.4313883 38.8186273,55.381595 C38.7970801,55.3471148 38.776475,55.3120547 38.7568348,55.2764537 L28.8443612,37.3082684 C28.6128857,36.8886766 28.4852935,36.4197386 28.4722654,35.9407099 L27.9180482,15.5627539 C27.9032652,15.0206561 28.3232776,14.5655901 28.8648189,14.5369254 C29.3298895,14.5123085 29.7082832,14.5 30,14.5 Z" id="duration" fill="#B9CDE4"></path>
            <path d="M30,56.5 C30.8284271,56.5 31.5,57.1715729 31.5,58 C31.5,58.8284271 30.8284271,59.5 30,59.5 C29.1715729,59.5 28.5,58.8284271 28.5,58 C28.5,57.1715729 29.1715729,56.5 30,56.5 Z M40.5,53.5 C41.3284271,53.5 42,54.1715729 42,55 C42,55.8284271 41.3284271,56.5 40.5,56.5 C39.6715729,56.5 39,55.8284271 39,55 C39,54.1715729 39.6715729,53.5 40.5,53.5 Z M19.5,53.5 C20.3284271,53.5 21,54.1715729 21,55 C21,55.8284271 20.3284271,56.5 19.5,56.5 C18.6715729,56.5 18,55.8284271 18,55 C18,54.1715729 18.6715729,53.5 19.5,53.5 Z M48,46 C48.8284271,46 49.5,46.6715729 49.5,47.5 C49.5,48.3284271 48.8284271,49 48,49 C47.1715729,49 46.5,48.3284271 46.5,47.5 C46.5,46.6715729 47.1715729,46 48,46 Z M12,46 C12.8284271,46 13.5,46.6715729 13.5,47.5 C13.5,48.3284271 12.8284271,49 12,49 C11.1715729,49 10.5,48.3284271 10.5,47.5 C10.5,46.6715729 11.1715729,46 12,46 Z M51,35.5 C51.8284271,35.5 52.5,36.1715729 52.5,37 C52.5,37.8284271 51.8284271,38.5 51,38.5 C50.1715729,38.5 49.5,37.8284271 49.5,37 C49.5,36.1715729 50.1715729,35.5 51,35.5 Z M9,35.5 C9.82842712,35.5 10.5,36.1715729 10.5,37 C10.5,37.8284271 9.82842712,38.5 9,38.5 C8.17157288,38.5 7.5,37.8284271 7.5,37 C7.5,36.1715729 8.17157288,35.5 9,35.5 Z M48,25 C48.8284271,25 49.5,25.6715729 49.5,26.5 C49.5,27.3284271 48.8284271,28 48,28 C47.1715729,28 46.5,27.3284271 46.5,26.5 C46.5,25.6715729 47.1715729,25 48,25 Z M12,25 C12.8284271,25 13.5,25.6715729 13.5,26.5 C13.5,27.3284271 12.8284271,28 12,28 C11.1715729,28 10.5,27.3284271 10.5,26.5 C10.5,25.6715729 11.1715729,25 12,25 Z M40.5,17.5 C41.3284271,17.5 42,18.1715729 42,19 C42,19.8284271 41.3284271,20.5 40.5,20.5 C39.6715729,20.5 39,19.8284271 39,19 C39,18.1715729 39.6715729,17.5 40.5,17.5 Z M19.5,17.5 C20.3284271,17.5 21,18.1715729 21,19 C21,19.8284271 20.3284271,20.5 19.5,20.5 C18.6715729,20.5 18,19.8284271 18,19 C18,18.1715729 18.6715729,17.5 19.5,17.5 Z M30,14.5 C30.8284271,14.5 31.5,15.1715729 31.5,16 C31.5,16.8284271 30.8284271,17.5 30,17.5 C29.1715729,17.5 28.5,16.8284271 28.5,16 C28.5,15.1715729 29.1715729,14.5 30,14.5 Z" id="dots" fill="#577592"></path>
        </g>
    </g>
</svg>