<?xml version="1.0" encoding="UTF-8"?>
<svg width="60px" height="66px" viewBox="0 0 60 66" version="1.1" xmlns="http://www.w3.org/2000/svg" xmlns:xlink="http://www.w3.org/1999/xlink">
    <!-- Generator: Sketch 58 (84663) - https://sketch.com -->
    <title>Icon-time_long</title>
    <desc>Created with Sketch.</desc>
    <g id="Page-1" stroke="none" stroke-width="1" fill="none" fill-rule="evenodd">
        <g id="Icon-time_long" transform="translate(0.000000, -1.000000)">
            <circle id="face" stroke="#577592" stroke-width="4" cx="30" cy="37" r="28"></circle>
            <path d="M16.2943243,4.97840586 C14.0575722,4.50595353 11.7651942,4.2657706 9.44370939,4.2657706 C7.79857746,4.2657706 6.16753184,4.38638618 4.55983174,4.62507611 C2.92094155,4.86839673 1.78960887,6.39423007 2.03292949,8.03312027 C2.27625011,9.67201047 3.80208346,10.8033431 5.44097366,10.5600225 C6.75719627,10.3646073 8.09373303,10.2657706 9.44370939,10.2657706 C11.3478625,10.2657706 13.2246897,10.4624144 15.0543483,10.8488794 C16.6754348,11.1912893 18.2671631,10.1547171 18.609573,8.53363063 C18.9519829,6.91254413 17.9154108,5.32081578 16.2943243,4.97840586 Z" id="crown" fill="#577592" fill-rule="nonzero" transform="translate(10.337474, 7.590013) rotate(-36.000000) translate(-10.337474, -7.590013) "></path>
            <path d="M30,14.5 C42.4264069,14.5 52.5,24.5735931 52.5,37 C52.5,49.4264069 42.4264069,59.5 30,59.5 C21.8246613,59.5 14.667698,55.1398164 10.7276873,48.6180263 C10.5153014,48.2664699 10.2506711,47.7791232 9.93379631,47.1559863 C9.68343636,46.6636953 9.87958194,46.0616648 10.371882,45.8113225 C10.3726384,45.8109379 10.3733954,45.8105542 10.3741528,45.8101714 L26.7933782,37.5132819 C27.8297336,36.9895954 28.4708216,35.9148851 28.4392545,34.7541596 L27.9173241,15.5627334 C27.9026054,15.0206785 28.3225755,14.5656465 28.8640714,14.5369697 C29.3294645,14.5123232 29.7081074,14.5 30,14.5 Z" id="duration" fill="#B9CDE4"></path>
            <path d="M30,56.5 C30.8284271,56.5 31.5,57.1715729 31.5,58 C31.5,58.8284271 30.8284271,59.5 30,59.5 C29.1715729,59.5 28.5,58.8284271 28.5,58 C28.5,57.1715729 29.1715729,56.5 30,56.5 Z M40.5,53.5 C41.3284271,53.5 42,54.1715729 42,55 C42,55.8284271 41.3284271,56.5 40.5,56.5 C39.6715729,56.5 39,55.8284271 39,55 C39,54.1715729 39.6715729,53.5 40.5,53.5 Z M19.5,53.5 C20.3284271,53.5 21,54.1715729 21,55 C21,55.8284271 20.3284271,56.5 19.5,56.5 C18.6715729,56.5 18,55.8284271 18,55 C18,54.1715729 18.6715729,53.5 19.5,53.5 Z M48,46 C48.8284271,46 49.5,46.6715729 49.5,47.5 C49.5,48.3284271 48.8284271,49 48,49 C47.1715729,49 46.5,48.3284271 46.5,47.5 C46.5,46.6715729 47.1715729,46 48,46 Z M12,46 C12.8284271,46 13.5,46.6715729 13.5,47.5 C13.5,48.3284271 12.8284271,49 12,49 C11.1715729,49 10.5,48.3284271 10.5,47.5 C10.5,46.6715729 11.1715729,46 12,46 Z M51,35.5 C51.8284271,35.5 52.5,36.1715729 52.5,37 C52.5,37.8284271 51.8284271,38.5 51,38.5 C50.1715729,38.5 49.5,37.8284271 49.5,37 C49.5,36.1715729 50.1715729,35.5 51,35.5 Z M9,35.5 C9.82842712,35.5 10.5,36.1715729 10.5,37 C10.5,37.8284271 9.82842712,38.5 9,38.5 C8.17157288,38.5 7.5,37.8284271 7.5,37 C7.5,36.1715729 8.17157288,35.5 9,35.5 Z M48,25 C48.8284271,25 49.5,25.6715729 49.5,26.5 C49.5,27.3284271 48.8284271,28 48,28 C47.1715729,28 46.5,27.3284271 46.5,26.5 C46.5,25.6715729 47.1715729,25 48,25 Z M12,25 C12.8284271,25 13.5,25.6715729 13.5,26.5 C13.5,27.3284271 12.8284271,28 12,28 C11.1715729,28 10.5,27.3284271 10.5,26.5 C10.5,25.6715729 11.1715729,25 12,25 Z M40.5,17.5 C41.3284271,17.5 42,18.1715729 42,19 C42,19.8284271 41.3284271,20.5 40.5,20.5 C39.6715729,20.5 39,19.8284271 39,19 C39,18.1715729 39.6715729,17.5 40.5,17.5 Z M19.5,17.5 C20.3284271,17.5 21,18.1715729 21,19 C21,19.8284271 20.3284271,20.5 19.5,20.5 C18.6715729,20.5 18,19.8284271 18,19 C18,18.1715729 18.6715729,17.5 19.5,17.5 Z M30,14.5 C30.8284271,14.5 31.5,15.1715729 31.5,16 C31.5,16.8284271 30.8284271,17.5 30,17.5 C29.1715729,17.5 28.5,16.8284271 28.5,16 C28.5,15.1715729 29.1715729,14.5 30,14.5 Z" id="dots" fill="#577592"></path>
        </g>
    </g>
</svg>