<svg width="166" height="36" viewBox="0 0 166 36" fill="none" xmlns="http://www.w3.org/2000/svg">
<g clip-path="url(#clip0_520_3052)">
<path d="M67.0438 20.7172L64.1716 12.9748C64.0544 12.6581 63.6065 12.6581 63.489 12.9748L60.6173 20.7176C60.5969 20.7727 60.5902 20.8318 60.5976 20.8901C60.605 20.9483 60.6264 21.0038 60.6599 21.052C60.6935 21.1002 60.7381 21.1395 60.7902 21.1667C60.8422 21.1939 60.9 21.208 60.9587 21.208H66.7024C66.7611 21.208 66.819 21.1938 66.871 21.1666C66.923 21.1394 66.9677 21.1 67.0012 21.0518C67.0347 21.0037 67.0561 20.9481 67.0634 20.8898C67.0708 20.8316 67.064 20.7724 67.0436 20.7174M68.3706 25.069H59.2908C59.2165 25.069 59.144 25.0918 59.083 25.1342C59.022 25.1766 58.9755 25.2367 58.9496 25.3063L57.162 30.1239C57.1362 30.1935 57.0896 30.2536 57.0286 30.296C56.9677 30.3384 56.8951 30.3612 56.8209 30.3612H52.8854C52.8259 30.3611 52.7673 30.3466 52.7148 30.3186C52.6622 30.2907 52.6173 30.2504 52.584 30.2011C52.5506 30.1518 52.5299 30.0951 52.5236 30.036C52.5172 29.9768 52.5255 29.917 52.5476 29.8618L61.6083 7.29028C61.6354 7.22286 61.6821 7.16511 61.7424 7.12446C61.8026 7.08381 61.8736 7.06212 61.9463 7.06219H65.7146C65.8631 7.06219 65.9968 7.15246 66.0524 7.29028L75.1128 29.8616C75.135 29.9168 75.1434 29.9767 75.1371 30.0359C75.1308 30.0951 75.1101 30.1519 75.0767 30.2012C75.0434 30.2506 74.9984 30.291 74.9458 30.3189C74.8932 30.3468 74.8346 30.3614 74.775 30.3614H70.8403C70.766 30.3614 70.6934 30.3386 70.6324 30.2961C70.5715 30.2537 70.5249 30.1935 70.4991 30.1239L68.7113 25.3063C68.6854 25.2367 68.6389 25.1766 68.5779 25.1342C68.5169 25.0918 68.4444 25.069 68.3701 25.069M76.9567 14.9836H80.3227C80.4192 14.9836 80.5118 15.022 80.58 15.0903C80.6483 15.1585 80.6867 15.2511 80.6867 15.3476V29.9972C80.6867 30.0937 80.6483 30.1863 80.58 30.2546C80.5118 30.3228 80.4192 30.3612 80.3227 30.3612H76.9567C76.8602 30.3612 76.7676 30.3228 76.6993 30.2546C76.6311 30.1863 76.5927 30.0937 76.5927 29.9972V15.3474C76.5927 15.2508 76.6311 15.1583 76.6993 15.09C76.7676 15.0218 76.8602 14.9834 76.9567 14.9834M92.9627 18.5472C92.9627 18.6437 92.9243 18.7363 92.8561 18.8045C92.7878 18.8728 92.6952 18.9111 92.5987 18.9111H92.4968C90.8325 18.9111 89.6117 19.3105 88.8352 20.1093C88.0583 20.9081 87.6705 22.2286 87.6705 24.0703V29.9972C87.6705 30.0937 87.6322 30.1863 87.5639 30.2546C87.4957 30.3228 87.4031 30.3612 87.3066 30.3612H83.9736C83.877 30.3612 83.7844 30.3228 83.7162 30.2546C83.6479 30.1863 83.6096 30.0937 83.6096 29.9972V15.3474C83.6096 15.2508 83.6479 15.1583 83.7162 15.09C83.7844 15.0218 83.877 14.9834 83.9736 14.9834H87.2731C87.3696 14.9834 87.4622 15.0218 87.5304 15.09C87.5987 15.1583 87.637 15.2508 87.637 15.3474V18.2451H87.7038C88.1032 17.0469 88.7355 16.1265 89.6013 15.4825C90.4663 14.8393 91.5315 14.5173 92.7962 14.5173H92.9627V18.5469V18.5472ZM102.166 18.4118C102.07 18.4118 101.977 18.4501 101.909 18.5184C101.841 18.5866 101.802 18.6792 101.802 18.7757V24.8691C101.802 25.4905 101.924 25.9343 102.168 26.2005C102.412 26.4667 102.834 26.5999 103.433 26.5999H103.768C103.865 26.5999 103.957 26.6382 104.025 26.7065C104.094 26.7748 104.132 26.8673 104.132 26.9639V30.0302C104.132 30.1267 104.094 30.2193 104.025 30.2876C103.957 30.3558 103.865 30.3942 103.768 30.3942H102.334C100.848 30.3942 99.7051 30.0115 98.9063 29.246C98.1073 28.4804 97.7079 27.3436 97.7079 25.8343V18.7757C97.7079 18.6792 97.6695 18.5866 97.6013 18.5184C97.533 18.4501 97.4404 18.4118 97.3439 18.4118H95.2428C95.1463 18.4118 95.0537 18.3734 94.9854 18.3052C94.9172 18.2369 94.8788 18.1443 94.8788 18.0478V15.3474C94.8788 15.2508 94.9172 15.1583 94.9854 15.09C95.0537 15.0218 95.1463 14.9834 95.2428 14.9834H97.3441C97.4407 14.9834 97.5332 14.9451 97.6015 14.8768C97.6698 14.8085 97.7081 14.716 97.7081 14.6194V9.18972C97.7081 9.09319 97.7464 9.00061 97.8147 8.93235C97.883 8.8641 97.9755 8.82575 98.0721 8.82575H101.438C101.535 8.82575 101.627 8.8641 101.695 8.93235C101.764 9.00061 101.802 9.09319 101.802 9.18972V14.6194C101.802 14.716 101.84 14.8085 101.909 14.8768C101.977 14.9451 102.069 14.9834 102.166 14.9834H104.6C104.697 14.9834 104.789 15.0218 104.857 15.09C104.926 15.1583 104.964 15.2508 104.964 15.3474V18.048C104.964 18.1446 104.926 18.2371 104.857 18.3054C104.789 18.3737 104.697 18.412 104.6 18.412H102.166V18.4118ZM117.579 25.8011C118.345 25.0023 118.728 23.9594 118.728 22.6722C118.728 21.3856 118.345 20.3423 117.579 19.5435C116.814 18.7447 115.81 18.3453 114.567 18.3453C113.324 18.3453 112.321 18.7447 111.555 19.5435C110.789 20.3423 110.407 21.3856 110.407 22.6722C110.407 23.9594 110.789 25.0023 111.555 25.8011C112.321 26.5999 113.324 26.9993 114.567 26.9993C115.81 26.9993 116.814 26.5999 117.579 25.8011ZM109.807 29.895C108.676 29.2518 107.782 28.3139 107.128 27.0825C106.473 25.8511 106.146 24.3811 106.146 22.6722C106.146 20.9639 106.473 19.4935 107.128 18.2621C107.782 17.0306 108.676 16.0935 109.807 15.4495C110.939 14.806 112.182 14.4843 113.535 14.4843C114.733 14.4843 115.76 14.7172 116.614 15.1831C117.468 15.649 118.15 16.3039 118.661 17.1471H118.728V15.3474C118.728 15.2508 118.766 15.1583 118.834 15.09C118.903 15.0218 118.995 14.9834 119.092 14.9834H122.424C122.521 14.9834 122.613 15.0218 122.682 15.09C122.75 15.1583 122.788 15.2508 122.788 15.3474V29.9969C122.788 30.0935 122.75 30.1861 122.682 30.2543C122.613 30.3226 122.521 30.3609 122.424 30.3609H119.092C118.995 30.3609 118.903 30.3226 118.834 30.2543C118.766 30.1861 118.728 30.0935 118.728 29.9969V28.1975H118.661C118.15 29.0412 117.468 29.6953 116.614 30.1612C115.76 30.6271 114.734 30.86 113.535 30.86C112.182 30.86 110.939 30.5383 109.807 29.895M136.649 25.8011C137.415 25.0023 137.797 23.9594 137.797 22.6722C137.797 21.3856 137.415 20.3423 136.649 19.5435C135.884 18.7447 134.879 18.3453 133.637 18.3453C132.394 18.3453 131.39 18.7447 130.625 19.5435C129.859 20.3423 129.476 21.3856 129.476 22.6722C129.476 23.9594 129.859 25.0023 130.625 25.8011C131.39 26.5999 132.394 26.9993 133.637 26.9993C134.879 26.9993 135.884 26.5999 136.649 25.8011ZM131.59 30.1612C130.736 29.6953 130.053 29.0412 129.543 28.1975H129.476V29.9969C129.476 30.0935 129.438 30.1861 129.37 30.2543C129.301 30.3226 129.209 30.3609 129.112 30.3609H125.746C125.65 30.3609 125.557 30.3226 125.489 30.2543C125.421 30.1861 125.382 30.0935 125.382 29.9969V7.42543C125.382 7.3289 125.421 7.23632 125.489 7.16807C125.557 7.09981 125.65 7.06146 125.746 7.06146H129.112C129.209 7.06146 129.301 7.09981 129.37 7.16807C129.438 7.23632 129.476 7.3289 129.476 7.42543V17.1468H129.543C130.053 16.3036 130.736 15.649 131.59 15.1831C132.444 14.717 133.47 14.484 134.669 14.484C136.022 14.484 137.265 14.8058 138.397 15.4493C139.528 16.0933 140.421 17.0304 141.076 18.2616C141.73 19.4937 142.058 20.9642 142.058 22.6724C142.058 24.3814 141.73 25.8511 141.076 27.0828C140.422 28.3142 139.529 29.252 138.397 29.895C137.265 30.5385 136.022 30.8605 134.669 30.8605C133.471 30.8605 132.444 30.6276 131.59 30.1615M147.729 30.3612H144.363C144.267 30.3612 144.174 30.3228 144.106 30.2546C144.038 30.1863 143.999 30.0937 143.999 29.9972V7.42616C143.999 7.32963 144.038 7.23705 144.106 7.16879C144.174 7.10054 144.267 7.06219 144.363 7.06219H147.729C147.826 7.06219 147.918 7.10054 147.987 7.16879C148.055 7.23705 148.093 7.32963 148.093 7.42616V29.9972C148.093 30.0937 148.055 30.1863 147.987 30.2546C147.918 30.3228 147.826 30.3612 147.729 30.3612M155.669 18.5452C155.111 18.9805 154.734 19.609 154.539 20.4311C154.486 20.6577 154.662 20.8751 154.895 20.8751H161.301C161.524 20.8751 161.698 20.6761 161.662 20.4568C161.534 19.6791 161.201 19.0591 160.662 18.5952C160.03 18.0517 159.203 17.7799 158.182 17.7799C157.161 17.7799 156.323 18.0349 155.669 18.5452M163.874 16.6312C165.183 18.0628 165.838 20.0877 165.838 22.7056V23.1405C165.838 23.237 165.799 23.3296 165.731 23.3978C165.663 23.4661 165.57 23.5044 165.474 23.5044H154.772C154.719 23.5046 154.666 23.5163 154.618 23.5388C154.569 23.5614 154.527 23.5942 154.492 23.635C154.458 23.6758 154.433 23.7236 154.419 23.7751C154.405 23.8265 154.403 23.8804 154.412 23.933C154.583 24.9055 155.013 25.6781 155.702 26.2505C156.49 26.9056 157.483 27.2325 158.681 27.2325C160.228 27.2325 161.66 26.6288 162.977 25.4211C163.138 25.2736 163.393 25.3049 163.517 25.4842L165.154 27.833C165.205 27.9061 165.228 27.9954 165.217 28.0841C165.207 28.1728 165.165 28.2546 165.098 28.3139C164.295 29.017 163.402 29.6103 162.442 30.0782C161.377 30.5994 160.123 30.8605 158.681 30.8605C157.017 30.8605 155.563 30.5218 154.321 29.8453C153.078 29.1688 152.113 28.2147 151.426 26.9828C150.737 25.7514 150.394 24.3258 150.394 22.7056C150.394 21.0862 150.726 19.6551 151.392 18.412C152.058 17.1697 152.99 16.2044 154.188 15.5163C155.386 14.8288 156.784 14.4845 158.382 14.4845C160.733 14.4845 162.564 15.2003 163.874 16.6312M81.1263 9.56776C81.1263 10.9407 80.0133 12.0537 78.6402 12.0537C77.2668 12.0537 76.1538 10.9407 76.1538 9.56752C76.1538 8.19438 77.267 7.08136 78.6402 7.08136C80.0133 7.08136 81.1263 8.19438 81.1263 9.56752" fill="white"/>
<path d="M20.0061 0.497157L4.00111 7.11972C3.11108 7.48806 3.1203 8.7525 4.01591 9.10749L20.0876 15.4809C21.4997 16.0409 23.0723 16.0409 24.4844 15.4809L40.5564 9.10725C41.4517 8.7525 41.4614 7.4883 40.5709 7.11997L24.5664 0.496915C23.1063 -0.107289 21.466 -0.107289 20.0059 0.496915" fill="white"/>
<path d="M23.7124 18.9608V34.8826C23.7124 35.6397 24.476 36.1584 25.1799 35.8794L43.0887 28.928C43.2885 28.8489 43.4598 28.7115 43.5805 28.5338C43.7012 28.356 43.7658 28.1461 43.7657 27.9313V12.0097C43.7657 11.2524 43.0021 10.7339 42.2982 11.0129L24.3894 17.9643C24.1897 18.0435 24.0184 18.1809 23.8977 18.3586C23.777 18.5363 23.7124 18.7462 23.7124 18.9611" fill="white"/>
<path d="M19.5304 19.7825L14.2155 22.3488L13.6759 22.6096L2.45634 27.9854C1.74539 28.3286 0.837402 27.8103 0.837402 27.0202V12.0765C0.837402 11.7907 0.983961 11.5439 1.18051 11.3583C1.26114 11.278 1.35261 11.2094 1.45227 11.1545C1.72015 10.9936 2.10256 10.9507 2.42771 11.0793L19.4412 17.8205C20.3059 18.1636 20.3739 19.3754 19.5304 19.7828" fill="white"/>
<path d="M19.5306 19.7825L14.2157 22.3488L1.18066 11.3581C1.26131 11.2779 1.35279 11.2093 1.45243 11.1545C1.72031 10.9936 2.10272 10.9507 2.42787 11.0793L19.4413 17.8205C20.3061 18.1636 20.374 19.3754 19.5306 19.7828" fill="white"/>
</g>
<defs>
<clipPath id="clip0_520_3052">
<rect width="165" height="35.9118" fill="white" transform="translate(0.837402 0.0441895)"/>
</clipPath>
</defs>
</svg>
