<svg width="200" height="42" viewBox="0 0 200 42" fill="none" xmlns="http://www.w3.org/2000/svg">
<g clip-path="url(#clip0_520_3058)">
<path d="M40.3797 2.45583C35.6156 -0.520762 29.3438 0.188412 23.75 3.7032C18.1738 0.188412 11.8981 -0.520762 7.13981 2.45583C-0.387151 7.15969 -1.30228 19.2739 5.09778 29.5152C9.81525 37.0655 17.1926 41.4896 23.7598 41.408C30.3269 41.4896 37.7043 37.0655 42.4217 29.5152C48.814 19.2739 47.9067 7.15969 40.3797 2.45583ZM8.55816 27.3527C7.23849 25.2607 6.24281 22.9811 5.60489 20.5913C5.03812 18.5168 4.82142 16.3623 4.96372 14.2165C5.24933 10.4316 6.79008 7.48417 9.30037 5.91621C11.8107 4.34826 15.1292 4.25305 18.6634 5.65586C19.1938 5.86764 19.7184 6.11245 20.2391 6.38252C18.2752 8.17328 16.5675 10.2262 15.1642 12.4834C11.2783 18.7008 10.0931 25.6196 11.4493 31.1356C10.3679 29.9691 9.39984 28.7024 8.55816 27.3527V27.3527ZM41.9166 20.5893C41.2778 22.9788 40.2822 25.2583 38.9633 27.3508C38.1209 28.7024 37.1529 29.9716 36.0722 31.1415C37.2846 26.1967 36.4608 20.1386 33.4881 14.4574C33.4406 14.3638 33.374 14.2813 33.2926 14.215C33.2112 14.1488 33.1169 14.1004 33.0156 14.0729C32.9143 14.0455 32.8084 14.0396 32.7047 14.0556C32.6011 14.0716 32.5019 14.1092 32.4136 14.166L23.1458 19.9559C23.0613 20.0087 22.988 20.0776 22.9301 20.1587C22.8722 20.2398 22.8309 20.3315 22.8085 20.4286C22.7861 20.5257 22.7831 20.6263 22.7997 20.7245C22.8162 20.8228 22.8519 20.9168 22.9049 21.0012L24.2649 23.1754C24.3175 23.2598 24.3862 23.3331 24.4671 23.391C24.5481 23.4488 24.6396 23.4901 24.7366 23.5125C24.8335 23.5349 24.9339 23.5379 25.032 23.5214C25.1301 23.5049 25.224 23.4692 25.3083 23.4163L31.3159 19.6625C31.5102 20.2454 31.7045 20.8283 31.8502 21.4112C32.4168 23.4831 32.6342 25.6349 32.4933 27.7782C32.2077 31.5611 30.6669 34.5086 28.1566 36.0785C26.8618 36.8701 25.3782 37.2996 23.8608 37.322H23.6684C22.1509 37.3 20.6672 36.8706 19.3726 36.0785C16.8604 34.5086 15.3196 31.5611 15.034 27.7782C14.8926 25.6324 15.1093 23.4781 15.6752 21.4034C16.9773 16.6036 19.669 12.2957 23.412 9.02104C25.0261 7.60422 26.8646 6.46567 28.8522 5.65197C32.3767 4.24917 35.7011 4.34243 38.2133 5.91233C40.7255 7.48222 42.2644 10.4277 42.55 14.2126C42.6941 16.3586 42.48 18.5136 41.9166 20.5893ZM89.7557 16.0681C84.8828 16.0681 80.9445 19.8724 80.9445 24.7123C80.9445 29.5191 84.8828 33.2612 89.7557 33.2612C94.6617 33.2612 98.6 29.5249 98.6 24.7123C98.6 19.8743 94.6675 16.07 89.7557 16.07V16.0681ZM89.7557 28.7419C87.5097 28.7419 85.7999 26.9253 85.7999 24.6792C85.7999 22.4332 87.5097 20.5893 89.7557 20.5893C92.0348 20.5893 93.7446 22.439 93.7446 24.685C93.7446 26.9311 92.0348 28.7497 89.7557 28.7497V28.7419ZM109.587 9.42905H100.621C100.524 9.4272 100.428 9.44494 100.338 9.48122C100.248 9.51749 100.166 9.57155 100.098 9.64015C100.029 9.70875 99.9756 9.79047 99.9396 9.8804C99.9036 9.97034 99.8861 10.0666 99.8882 10.1635V32.0235C99.8812 32.1236 99.895 32.2241 99.9288 32.3186C99.9625 32.413 100.015 32.4995 100.084 32.5725C100.153 32.6455 100.236 32.7035 100.329 32.7428C100.421 32.782 100.52 32.8018 100.621 32.8007H109.587C116.763 32.8007 121.748 28.0289 121.748 21.0867C121.748 14.1018 116.763 9.42905 109.587 9.42905ZM109.799 28.1843H104.893V14.0338H109.799C113.771 14.0338 116.508 17.0046 116.508 21.077C116.508 25.0814 113.771 28.1843 109.799 28.1843ZM139.596 16.5383H136.225C136.039 16.553 135.864 16.6362 135.735 16.7717C135.606 16.9072 135.531 17.0856 135.526 17.2727V18.2733C134.758 17.0046 133.023 16.07 130.863 16.07C126.658 16.07 122.72 19.373 122.72 24.6481C122.72 29.8941 126.623 33.2573 130.83 33.2573C132.998 33.2573 134.768 32.3247 135.535 31.056V32.0896C135.536 32.275 135.61 32.4525 135.741 32.5838C135.872 32.715 136.049 32.7895 136.235 32.791H139.606C139.699 32.7931 139.791 32.7764 139.877 32.742C139.963 32.7075 140.041 32.6559 140.107 32.5903C140.172 32.5247 140.224 32.4466 140.258 32.3605C140.293 32.2745 140.309 32.1823 140.307 32.0896V17.2727C140.31 17.1775 140.294 17.0826 140.259 16.9937C140.225 16.9049 140.173 16.8238 140.107 16.7553C140.04 16.6869 139.961 16.6324 139.873 16.5951C139.786 16.5578 139.691 16.5385 139.596 16.5383V16.5383ZM131.754 28.7788C129.522 28.7788 127.845 27.0632 127.845 24.6831C127.845 22.303 129.522 20.5893 131.754 20.5893C133.987 20.5893 135.664 22.3011 135.664 24.6812C135.664 27.0613 133.989 28.7769 131.754 28.7769V28.7788ZM158.518 9.42905H155.147C155.053 9.42621 154.959 9.44218 154.871 9.47603C154.783 9.50989 154.702 9.56094 154.634 9.62623C154.566 9.69152 154.512 9.76973 154.474 9.8563C154.436 9.94287 154.416 10.0361 154.415 10.1305V18.2073C153.638 17.0046 151.877 16.07 149.676 16.07C145.503 16.07 141.632 19.373 141.632 24.6481C141.632 29.8941 145.536 33.2573 149.742 33.2573C151.911 33.2573 153.546 32.3247 154.448 31.056V32.0896C154.449 32.2751 154.522 32.453 154.653 32.5843C154.784 32.7157 154.962 32.79 155.147 32.791H158.518C158.611 32.7934 158.704 32.7769 158.79 32.7425C158.876 32.7081 158.954 32.6565 159.02 32.5909C159.085 32.5253 159.137 32.447 159.171 32.3608C159.206 32.2747 159.222 32.1824 159.22 32.0896V10.1343C159.223 10.0413 159.207 9.94855 159.173 9.86191C159.138 9.77526 159.087 9.69651 159.021 9.63047C158.956 9.56444 158.877 9.51251 158.791 9.47787C158.704 9.44324 158.612 9.42663 158.518 9.42905V9.42905ZM150.677 28.8196C148.454 28.8196 146.791 27.0865 146.791 24.6812C146.791 22.2758 148.46 20.5427 150.677 20.5427C152.894 20.5427 154.563 22.2758 154.563 24.6812C154.563 27.0865 152.901 28.8196 150.677 28.8196ZM177.437 9.42905H174.072C173.977 9.42621 173.883 9.44217 173.795 9.476C173.707 9.50983 173.626 9.56086 173.558 9.62612C173.489 9.69138 173.435 9.76957 173.397 9.85616C173.359 9.94274 173.339 10.036 173.337 10.1305V18.2073C172.57 17.0046 170.8 16.07 168.598 16.07C164.425 16.07 160.555 19.373 160.555 24.6481C160.555 29.8941 164.46 33.2573 168.665 33.2573C170.835 33.2573 172.469 32.3247 173.37 31.056V32.0896C173.371 32.2753 173.446 32.4531 173.577 32.5844C173.708 32.7158 173.886 32.79 174.072 32.791H177.437C177.53 32.7934 177.622 32.7769 177.708 32.7425C177.794 32.7081 177.872 32.6565 177.938 32.5908C178.003 32.5252 178.054 32.4469 178.089 32.3607C178.123 32.2745 178.139 32.1823 178.136 32.0896V10.1343C178.14 10.0414 178.124 9.94869 178.09 9.86205C178.056 9.77541 178.005 9.69664 177.939 9.63057C177.873 9.5645 177.795 9.51254 177.709 9.47789C177.622 9.44323 177.53 9.42661 177.437 9.42905V9.42905ZM169.595 28.8196C167.371 28.8196 165.709 27.0865 165.709 24.6812C165.709 22.2758 167.378 20.5427 169.595 20.5427C171.812 20.5427 173.481 22.2758 173.481 24.6812C173.481 27.0865 171.824 28.8196 169.601 28.8196H169.595ZM195.895 17.6749L190.865 34.9263C189.893 37.9962 187.727 39.8322 184.356 39.8322C182.823 39.8322 181.428 39.5194 180.334 38.8938C179.697 38.5305 179.168 38.1982 179.168 37.6659C179.168 37.3356 179.275 37.1646 179.469 36.8556L180.468 35.3596C180.75 34.9418 180.958 34.8058 181.261 34.8058C181.501 34.8117 181.733 34.8926 181.925 35.0371C182.553 35.4431 183.136 35.7929 184.023 35.7929C185.061 35.7929 185.854 35.4606 186.281 34.2249L186.713 32.793H184.676C184.468 32.7996 184.264 32.7332 184.099 32.6051C183.934 32.477 183.82 32.2953 183.775 32.0915L179.273 17.6749C179.106 17.1076 179.259 16.5402 180.093 16.5402H183.639C184.072 16.5402 184.375 16.6879 184.566 17.3077L187.89 28.9168L190.999 17.3077C191.098 16.9074 191.366 16.5402 191.9 16.5402H195.263C195.926 16.5383 196.126 17.0046 195.895 17.6749ZM79.6738 22.8062V32.0216C79.6754 32.1221 79.6567 32.2218 79.619 32.3149C79.5813 32.408 79.5253 32.4926 79.4542 32.5637C79.3832 32.6347 79.2986 32.6907 79.2055 32.7285C79.1124 32.7662 79.0126 32.7848 78.9122 32.7832H76.1299C76.0293 32.7851 75.9295 32.7666 75.8362 32.729C75.743 32.6914 75.6583 32.6354 75.5872 32.5643C75.5161 32.4932 75.4601 32.4085 75.4224 32.3152C75.3848 32.222 75.3664 32.1221 75.3682 32.0216V29.6026C73.6021 31.8331 70.5303 33.2379 67.0563 33.2379C60.5319 33.2379 55.4336 28.33 55.4336 21.3432C55.4336 14.0824 60.938 9.07738 67.8918 9.07738C73.025 9.07738 77.1285 11.2846 78.951 15.7242C79.0021 15.8415 79.0304 15.9674 79.0346 16.0953C79.0346 16.3051 78.8966 16.4645 78.4517 16.6179L75.2031 17.8692C75.0071 17.9505 74.7875 17.9539 74.5891 17.8789C74.4152 17.7762 74.2789 17.6202 74.2005 17.434C73.0348 15.2171 70.9597 13.7113 67.7655 13.7113C63.6231 13.7113 60.6563 16.9463 60.6563 21.1411C60.6563 25.2077 63.1821 28.5515 67.884 28.5515C70.3574 28.5515 72.3295 27.3857 73.2485 26.1053H70.3146C70.2142 26.1069 70.1144 26.0883 70.0213 26.0506C69.9282 26.0129 69.8436 25.9568 69.7726 25.8858C69.7015 25.8147 69.6455 25.7301 69.6078 25.637C69.5701 25.5439 69.5514 25.4442 69.553 25.3437V22.8393C69.5514 22.7388 69.5701 22.6391 69.6078 22.5459C69.6455 22.4528 69.7015 22.3682 69.7726 22.2972C69.8436 22.2262 69.9282 22.1701 70.0213 22.1324C70.1144 22.0947 70.2142 22.076 70.3146 22.0776H78.9122C79.0107 22.0726 79.1093 22.0877 79.2018 22.1221C79.2943 22.1566 79.3788 22.2095 79.4501 22.2777C79.5214 22.3459 79.578 22.428 79.6165 22.5189C79.6549 22.6098 79.6745 22.7075 79.6738 22.8062V22.8062ZM195.986 13.1265V12.903C195.986 12.8874 195.992 12.8722 196.002 12.8603C196.013 12.8503 196.028 12.8448 196.043 12.8447H197.463C197.47 12.8445 197.478 12.8457 197.485 12.8484C197.492 12.8511 197.498 12.8551 197.504 12.8603C197.514 12.8722 197.519 12.8874 197.519 12.903V13.1265C197.519 13.1415 197.514 13.156 197.504 13.1673C197.498 13.1725 197.492 13.1765 197.485 13.1792C197.478 13.1818 197.47 13.1831 197.463 13.1828H196.944V14.5837C196.944 14.599 196.937 14.6135 196.926 14.6244C196.916 14.6352 196.901 14.6415 196.886 14.642H196.618C196.61 14.6419 196.603 14.6404 196.596 14.6374C196.59 14.6343 196.584 14.63 196.579 14.6245C196.573 14.6192 196.569 14.6129 196.566 14.6059C196.563 14.5989 196.561 14.5913 196.561 14.5837V13.1828H196.043C196.035 13.1834 196.027 13.1823 196.02 13.1797C196.013 13.1771 196.007 13.173 196.001 13.1676C195.996 13.1623 195.992 13.1558 195.989 13.1487C195.987 13.1416 195.986 13.134 195.986 13.1265V13.1265ZM198.469 12.8953L198.858 13.7948L199.246 12.8953C199.252 12.8793 199.263 12.8657 199.278 12.8564C199.294 12.848 199.312 12.844 199.33 12.8447H199.781C199.788 12.8442 199.796 12.8452 199.803 12.8477C199.809 12.8502 199.816 12.8542 199.821 12.8593C199.826 12.8645 199.831 12.8707 199.833 12.8775C199.836 12.8844 199.837 12.8918 199.837 12.8992V14.5856C199.838 14.593 199.837 14.6004 199.834 14.6074C199.832 14.6143 199.828 14.6207 199.823 14.626C199.817 14.6313 199.811 14.6355 199.804 14.6382C199.797 14.641 199.79 14.6423 199.783 14.642H199.53C199.523 14.6422 199.515 14.641 199.508 14.6383C199.501 14.6356 199.495 14.6316 199.489 14.6264C199.484 14.6212 199.48 14.6149 199.477 14.6078C199.474 14.6007 199.473 14.5932 199.474 14.5856V13.313L199.056 14.2378C199.05 14.2553 199.039 14.2708 199.025 14.2825C199.009 14.2914 198.991 14.2954 198.972 14.2942H198.767C198.749 14.2952 198.731 14.2911 198.716 14.2825C198.701 14.2713 198.69 14.2557 198.685 14.2378L198.269 13.313V14.5856C198.27 14.593 198.268 14.6003 198.266 14.6072C198.263 14.6141 198.259 14.6204 198.254 14.6257C198.249 14.631 198.243 14.6352 198.236 14.638C198.229 14.6408 198.222 14.6421 198.215 14.642H197.956C197.949 14.6419 197.942 14.6403 197.935 14.6374C197.929 14.6345 197.923 14.6303 197.918 14.625C197.913 14.6198 197.909 14.6135 197.907 14.6068C197.904 14.6 197.903 14.5928 197.904 14.5856V12.8992C197.904 12.8918 197.905 12.8844 197.908 12.8775C197.91 12.8707 197.915 12.8645 197.92 12.8593C197.925 12.8542 197.932 12.8502 197.938 12.8477C197.945 12.8452 197.953 12.8442 197.96 12.8447H198.397C198.415 12.8443 198.432 12.8483 198.448 12.8564C198.459 12.8671 198.466 12.8806 198.469 12.8953V12.8953Z" fill="white"/>
</g>
<defs>
<clipPath id="clip0_520_3058">
<rect width="199" height="40.8187" fill="white" transform="translate(0.837402 0.590576)"/>
</clipPath>
</defs>
</svg>
